<svg width="27" height="24" viewBox="0 0 27 24" fill="none" xmlns="http://www.w3.org/2000/svg">
<path d="M19.4999 10.8C21.2503 10.8 22.9291 11.4954 24.1668 12.7331C25.4045 13.9708 26.0999 15.6496 26.0999 17.4C26.0999 19.1504 25.4045 20.8292 24.1668 22.0669C22.9291 23.3046 21.2503 24 19.4999 24C17.7495 24 16.0707 23.3046 14.833 22.0669C13.5953 20.8292 12.8999 19.1504 12.8999 17.4C12.8999 15.6496 13.5953 13.9708 14.833 12.7331C16.0707 11.4954 17.7495 10.8 19.4999 10.8ZM19.4999 13.2L19.3919 13.2084C19.272 13.2303 19.1616 13.2882 19.0755 13.3744C18.9893 13.4605 18.9314 13.5709 18.9095 13.6908L18.8999 13.8V16.8H15.8975L15.7895 16.8096C15.6696 16.8315 15.5592 16.8894 15.4731 16.9756C15.3869 17.0617 15.329 17.1721 15.3071 17.292L15.2975 17.4L15.3071 17.508C15.329 17.6279 15.3869 17.7383 15.4731 17.8244C15.5592 17.9106 15.6696 17.9685 15.7895 17.9904L15.8975 18H18.8999V21.0036L18.9095 21.1116C18.9314 21.2315 18.9893 21.3419 19.0755 21.428C19.1616 21.5142 19.272 21.5721 19.3919 21.594L19.4999 21.6036L19.6079 21.594C19.7278 21.5721 19.8382 21.5142 19.9243 21.428C20.0105 21.3419 20.0684 21.2315 20.0903 21.1116L20.0999 21.0036V18L23.1047 18.0012L23.2127 17.9916C23.3326 17.9697 23.443 17.9118 23.5291 17.8256C23.6153 17.7395 23.6732 17.6291 23.6951 17.5092L23.7047 17.4012L23.6951 17.2932C23.6731 17.1731 23.6151 17.0627 23.5286 16.9765C23.4422 16.8903 23.3316 16.8325 23.2115 16.8108L23.1035 16.8012H20.0999V13.8012L20.0903 13.6932C20.0686 13.5731 20.0108 13.4625 19.9246 13.3761C19.8384 13.2896 19.728 13.2316 19.6079 13.2096L19.4999 13.2ZM15.6047 8.4C16.6067 8.4 17.4803 8.9448 17.9459 9.756C16.7051 10.0088 15.5445 10.5599 14.5643 11.3615C13.5841 12.1632 12.8137 13.1914 12.3197 14.3573C11.8257 15.5232 11.6229 16.7919 11.7288 18.0537C11.8347 19.3156 12.2461 20.5327 12.9275 21.6L12.9035 21.5988C11.471 21.5988 10.0972 21.0297 9.08428 20.0168C8.07136 19.0039 7.5023 17.6301 7.5023 16.1976V11.1C7.5023 10.3839 7.78677 9.69716 8.29311 9.19081C8.79946 8.68446 9.48622 8.4 10.2023 8.4H15.6047ZM7.3871 8.4C6.75151 9.06108 6.37023 9.92567 6.3107 10.8408L6.3023 11.1V16.1988C6.3023 17.2152 6.5315 18.1776 6.9419 19.0368C6.23064 19.2271 5.48514 19.2512 4.76306 19.1074C4.04097 18.9635 3.36164 18.6555 2.7776 18.2072C2.19356 17.7589 1.72045 17.1822 1.39486 16.5219C1.06927 15.8615 0.899917 15.1351 0.899902 14.3988V11.1C0.899818 10.4158 1.15946 9.75718 1.62635 9.2571C2.09323 8.75702 2.73256 8.45283 3.4151 8.406L3.5999 8.4H7.3871ZM22.1999 8.4C22.916 8.4 23.6027 8.68446 24.1091 9.19081C24.6154 9.69716 24.8999 10.3839 24.8999 11.1V11.772C23.4491 10.376 21.5133 9.59738 19.4999 9.6L19.2083 9.606C19.0223 9.15843 18.7546 8.74944 18.4187 8.4H22.1999ZM20.6999 1.2C21.4956 1.2 22.2586 1.51607 22.8212 2.07868C23.3838 2.64129 23.6999 3.40435 23.6999 4.2C23.6999 4.99565 23.3838 5.75871 22.8212 6.32132C22.2586 6.88393 21.4956 7.2 20.6999 7.2C19.9043 7.2 19.1412 6.88393 18.5786 6.32132C18.016 5.75871 17.6999 4.99565 17.6999 4.2C17.6999 3.40435 18.016 2.64129 18.5786 2.07868C19.1412 1.51607 19.9043 1.2 20.6999 1.2ZM12.8999 0C13.8547 0 14.7704 0.379285 15.4455 1.05442C16.1206 1.72955 16.4999 2.64522 16.4999 3.6C16.4999 4.55478 16.1206 5.47045 15.4455 6.14559C14.7704 6.82072 13.8547 7.2 12.8999 7.2C11.9451 7.2 11.0294 6.82072 10.3543 6.14559C9.67919 5.47045 9.2999 4.55478 9.2999 3.6C9.2999 2.64522 9.67919 1.72955 10.3543 1.05442C11.0294 0.379285 11.9451 0 12.8999 0ZM5.0999 1.2C5.89555 1.2 6.65861 1.51607 7.22122 2.07868C7.78383 2.64129 8.0999 3.40435 8.0999 4.2C8.0999 4.99565 7.78383 5.75871 7.22122 6.32132C6.65861 6.88393 5.89555 7.2 5.0999 7.2C4.30425 7.2 3.54119 6.88393 2.97858 6.32132C2.41597 5.75871 2.0999 4.99565 2.0999 4.2C2.0999 3.40435 2.41597 2.64129 2.97858 2.07868C3.54119 1.51607 4.30425 1.2 5.0999 1.2Z" fill="#27AE60"/>
</svg>
