<svg width="27" height="24" viewBox="0 0 27 24" fill="none" xmlns="http://www.w3.org/2000/svg">
<path d="M12.6428 0C12.193 -6.70344e-09 11.7475 0.0886065 11.3319 0.260761C10.9163 0.432915 10.5386 0.685245 10.2205 1.00334C9.90244 1.32144 9.65011 1.69908 9.47796 2.1147C9.3058 2.53032 9.2172 2.97577 9.2172 3.42563C9.2172 3.87549 9.3058 4.32095 9.47796 4.73657C9.65011 5.15218 9.90244 5.52982 10.2205 5.84792C10.5386 6.16602 10.9163 6.41835 11.3319 6.5905C11.7475 6.76266 12.193 6.85126 12.6428 6.85126C13.5514 6.85126 14.4227 6.49035 15.0651 5.84792C15.7075 5.20549 16.0685 4.33417 16.0685 3.42563C16.0685 2.5171 15.7075 1.64577 15.0651 1.00334C14.4227 0.360914 13.5514 0 12.6428 0ZM20.3582 1.7111C19.6761 1.7111 19.022 1.98206 18.5397 2.46436C18.0574 2.94667 17.7864 3.60081 17.7864 4.2829C17.7864 4.96498 18.0574 5.61913 18.5397 6.10143C19.022 6.58374 19.6761 6.85469 20.3582 6.85469C21.0403 6.85469 21.6944 6.58374 22.1768 6.10143C22.6591 5.61913 22.93 4.96498 22.93 4.2829C22.93 3.60081 22.6591 2.94667 22.1768 2.46436C21.6944 1.98206 21.0403 1.7111 20.3582 1.7111ZM4.92744 1.7111C4.24536 1.7111 3.59121 1.98206 3.10891 2.46436C2.6266 2.94667 2.35564 3.60081 2.35564 4.2829C2.35564 4.96498 2.6266 5.61913 3.10891 6.10143C3.59121 6.58374 4.24536 6.85469 4.92744 6.85469C5.60952 6.85469 6.26367 6.58374 6.74598 6.10143C7.22828 5.61913 7.49924 4.96498 7.49924 4.2829C7.49924 3.60081 7.22828 2.94667 6.74598 2.46436C6.26367 1.98206 5.60952 1.7111 4.92744 1.7111ZM7.49924 10.2718C7.5024 9.81911 7.68444 9.38609 8.00563 9.06715C8.32683 8.7482 8.76112 8.56921 9.21377 8.56922H13.2206C11.982 9.43871 10.9711 10.5939 10.2737 11.9369C9.57619 13.2799 9.21263 14.7713 9.21377 16.2846C9.21377 17.5139 9.44866 18.6884 9.87729 19.7651C9.14904 19.2994 8.54957 18.6581 8.13402 17.9001C7.71848 17.1421 7.50019 16.2918 7.49924 15.4273V10.2718ZM5.78471 10.2838C5.78471 9.65795 5.95102 9.0733 6.2442 8.56922H2.35564C1.90092 8.56922 1.46482 8.74986 1.14329 9.0714C0.821751 9.39294 0.641114 9.82903 0.641114 10.2838V14.5701C0.64088 15.2718 0.812954 15.9629 1.14222 16.5827C1.47149 17.2024 1.94789 17.7318 2.52957 18.1244C3.11125 18.517 3.78043 18.7607 4.47833 18.8342C5.17623 18.9078 5.88152 18.8088 6.53224 18.5461C6.03876 17.5801 5.78251 16.5104 5.78471 15.4256V10.2838ZM26.3591 16.2846C26.3591 18.3309 25.5462 20.2933 24.0993 21.7402C22.6524 23.1871 20.6899 24 18.6437 24C16.5974 24 14.635 23.1871 13.1881 21.7402C11.7412 20.2933 10.9283 18.3309 10.9283 16.2846C10.9283 14.2384 11.7412 12.2759 13.1881 10.829C14.635 9.38209 16.5974 8.56922 18.6437 8.56922C20.6899 8.56922 22.6524 9.38209 24.0993 10.829C25.5462 12.2759 26.3591 14.2384 26.3591 16.2846ZM21.8224 14.3198C21.9834 14.1588 22.0738 13.9405 22.0738 13.7128C22.0738 13.4852 21.9834 13.2668 21.8224 13.1059C21.6615 12.9449 21.4431 12.8545 21.2155 12.8545C20.9878 12.8545 20.7695 12.9449 20.6085 13.1059L18.6437 15.0724L16.6788 13.1059C16.5179 12.9449 16.2995 12.8545 16.0719 12.8545C15.8442 12.8545 15.6259 12.9449 15.4649 13.1059C15.304 13.2668 15.2135 13.4852 15.2135 13.7128C15.2135 13.9405 15.304 14.1588 15.4649 14.3198L17.4315 16.2846L15.4649 18.2495C15.304 18.4104 15.2135 18.6288 15.2135 18.8564C15.2135 19.0841 15.304 19.3024 15.4649 19.4634C15.6259 19.6243 15.8442 19.7148 16.0719 19.7148C16.2995 19.7148 16.5179 19.6243 16.6788 19.4634L18.6437 17.4968L20.6085 19.4634C20.7695 19.6243 20.9878 19.7148 21.2155 19.7148C21.4431 19.7148 21.6615 19.6243 21.8224 19.4634C21.9834 19.3024 22.0738 19.0841 22.0738 18.8564C22.0738 18.6288 21.9834 18.4104 21.8224 18.2495L19.8559 16.2846L21.8224 14.3198Z" fill="#EB5757"/>
</svg>
