<svg width="28" height="24" viewBox="0 0 28 24" fill="none" xmlns="http://www.w3.org/2000/svg">
<path d="M12.1669 23.2871L9.82462 21.1485C7.42575 18.9533 5.25908 16.7749 3.32459 14.6132C1.3892 12.4524 0.421509 10.0707 0.421509 7.46817C0.421509 5.34088 1.13438 3.56436 2.56012 2.13861C3.98586 0.712871 5.76239 0 7.88968 0C9.08912 0 10.2207 0.25437 11.2843 0.763111C12.348 1.27276 13.2532 1.96888 14 2.85148C14.7468 1.96888 15.6521 1.27276 16.7157 0.763111C17.7794 0.25437 18.9109 0 20.1103 0C22.2376 0 24.0142 0.712871 25.4399 2.13861C26.8656 3.56436 27.5785 5.34088 27.5785 7.46817C27.5785 10.0707 26.6167 12.4583 24.6931 14.6308C22.7695 16.8034 20.5856 18.9873 18.1415 21.1825L15.8331 23.2871C15.3126 23.7624 14.7016 24 14 24C13.2985 24 12.6874 23.7624 12.1669 23.2871Z" fill="#2E8B57"/>
</svg>
