<svg width="25" height="25" viewBox="0 0 25 25" fill="none" xmlns="http://www.w3.org/2000/svg">
<path d="M12.5 6.05957H22.5" stroke="#9B51E0" stroke-width="1.5" stroke-miterlimit="10" stroke-linecap="round" stroke-linejoin="round"/>
<path d="M14.72 2.5H20.28C22.06 2.5 22.5 2.94 22.5 4.7V8.81C22.5 10.57 22.06 11.01 20.28 11.01H14.72C12.94 11.01 12.5 10.57 12.5 8.81V4.7C12.5 2.94 12.94 2.5 14.72 2.5Z" stroke="#9B51E0" stroke-width="1.5" stroke-linecap="round" stroke-linejoin="round"/>
<path d="M2.5 17.5596H12.5" stroke="#9B51E0" stroke-width="1.5" stroke-miterlimit="10" stroke-linecap="round" stroke-linejoin="round"/>
<path d="M4.72 14H10.28C12.06 14 12.5 14.44 12.5 16.2V20.31C12.5 22.07 12.06 22.51 10.28 22.51H4.72C2.94 22.51 2.5 22.07 2.5 20.31V16.2C2.5 14.44 2.94 14 4.72 14Z" stroke="#9B51E0" stroke-width="1.5" stroke-linecap="round" stroke-linejoin="round"/>
<path d="M22.5 15.5C22.5 19.37 19.37 22.5 15.5 22.5L16.55 20.75" stroke="#9B51E0" stroke-width="1.5" stroke-linecap="round" stroke-linejoin="round"/>
<path d="M2.5 9.5C2.5 5.63 5.63 2.5 9.5 2.5L8.45001 4.25" stroke="#9B51E0" stroke-width="1.5" stroke-linecap="round" stroke-linejoin="round"/>
</svg>
