<svg width="24" height="24" viewBox="0 0 24 24" fill="none" xmlns="http://www.w3.org/2000/svg">
<path d="M12.6733 5.33024H11.331C11.2082 5.33024 11.1077 5.4307 11.1077 5.55349V13.2363C11.1077 13.3088 11.1412 13.3758 11.1998 13.4177L15.8128 16.786C15.9133 16.8586 16.0528 16.8391 16.1254 16.7386L16.9235 15.6502C16.9989 15.547 16.9766 15.4074 16.8761 15.3377L12.8966 12.4605V5.55349C12.8966 5.4307 12.7961 5.33024 12.6733 5.33024ZM18.8073 7.42884L23.1831 8.49768C23.3226 8.53117 23.4593 8.42512 23.4593 8.28279L23.4817 3.77582C23.4817 3.58884 23.2668 3.48279 23.1217 3.6L18.7235 7.03535C18.6903 7.06107 18.665 7.09564 18.6505 7.1351C18.6361 7.17455 18.633 7.21729 18.6418 7.2584C18.6505 7.2995 18.6707 7.33731 18.7 7.36746C18.7292 7.39761 18.7664 7.41889 18.8073 7.42884ZM23.4873 15.8316L21.9049 15.2874C21.8498 15.2685 21.7894 15.272 21.7367 15.297C21.684 15.322 21.6432 15.3667 21.6231 15.4214C21.57 15.5637 21.5142 15.7033 21.4556 15.8428C20.9589 17.0177 20.2473 18.0753 19.3375 18.9823C18.4378 19.8848 17.3716 20.6041 16.198 21.1005C14.9821 21.6145 13.6752 21.8784 12.3552 21.8763C11.0212 21.8763 9.72912 21.6167 8.51237 21.1005C7.33871 20.6041 6.2725 19.8848 5.37284 18.9823C4.46586 18.0753 3.75423 17.0177 3.2547 15.8428C2.74349 14.6263 2.48157 13.3196 2.48446 12C2.48446 10.666 2.744 9.37117 3.26028 8.15442C3.75702 6.97954 4.46865 5.92186 5.37842 5.01489C6.27808 4.11243 7.3443 3.39309 8.51795 2.89675C9.72912 2.38047 11.024 2.12093 12.358 2.12093C13.6919 2.12093 14.984 2.38047 16.2007 2.89675C17.3744 3.39309 18.4406 4.11243 19.3403 5.01489C19.6249 5.30233 19.8928 5.60093 20.1384 5.91628L21.8073 4.61024C19.611 1.80279 16.1924 -0.00278747 12.3524 3.23034e-06C5.66586 0.00279393 0.296558 5.43349 0.363535 12.1228C0.430512 18.6949 5.7747 24 12.358 24C17.5347 24 21.944 20.7181 23.624 16.1219C23.6659 16.0047 23.6045 15.8735 23.4873 15.8316Z" fill="#2E8B57"/>
</svg>
