<svg width="26" height="24" viewBox="0 0 26 24" fill="none" xmlns="http://www.w3.org/2000/svg">
<path d="M9.55996 0L8.50521 8.41685H10.8202L13.476 0.488968L9.55996 0ZM14.52 0.432715L11.8479 8.41685L19.9451 8.42226L21.8004 2.87215L14.52 0.432715ZM8.45653 1.00823L4.56751 1.43229L5.33017 8.41685H7.53161L8.45653 1.00823ZM2.18217 6.79417C1.56014 6.79417 1.14473 7.27015 1.03168 7.7245C0.975432 7.95168 1.00734 8.13558 1.07117 8.23835C1.13445 8.33571 1.22208 8.41685 1.53309 8.41685H4.35115L4.17266 6.79417H2.18217ZM21.5137 6.79417L20.9728 8.41685H23.5421C23.4014 8.1464 23.3419 7.85973 23.3798 7.57305C23.4177 7.29179 23.5258 7.03757 23.6665 6.79417H21.5137ZM0.93811 9.39046V22.7451C0.93811 23.021 1.08902 23.3455 1.33675 23.5943C1.58502 23.8431 1.91172 23.9946 2.18217 23.9946L22.9525 24C23.2229 24 23.5475 23.8485 23.7963 23.5997C24.0451 23.3509 24.1965 23.0264 24.1965 22.7505V18.9102H19.4908C17.1108 18.9102 17.1108 14.4749 19.4908 14.4749H24.1965V9.39587L0.93811 9.39046ZM19.4908 15.4485C18.409 15.4485 18.409 17.9366 19.4908 17.9366H20.697C20.2102 17.731 19.8694 17.2496 19.8694 16.6925C19.8694 16.1354 20.2102 15.654 20.697 15.4485H19.4908ZM21.7463 15.4485C22.2331 15.654 22.5739 16.1354 22.5739 16.6925C22.5739 17.2496 22.2331 17.731 21.7463 17.9366H25.062V15.4485H21.7463ZM21.2216 16.3139C21.0053 16.3139 20.843 16.4762 20.843 16.6925C20.843 16.9089 21.0053 17.0711 21.2216 17.0711C21.438 17.0711 21.6003 16.9089 21.6003 16.6925C21.6003 16.4762 21.438 16.3139 21.2216 16.3139Z" fill="#2E8B57"/>
</svg>
