<svg width="24" height="24" viewBox="0 0 24 24" fill="none" xmlns="http://www.w3.org/2000/svg">
<path d="M3.42857 3.42857C3.42857 2.51926 3.78979 1.64719 4.43278 1.00421C5.07576 0.361224 5.94783 0 6.85714 0C7.76646 0 8.63853 0.361224 9.28151 1.00421C9.92449 1.64719 10.2857 2.51926 10.2857 3.42857C10.2857 4.33789 9.92449 5.20996 9.28151 5.85294C8.63853 6.49592 7.76646 6.85714 6.85714 6.85714C5.94783 6.85714 5.07576 6.49592 4.43278 5.85294C3.78979 5.20996 3.42857 4.33789 3.42857 3.42857ZM15.0497 6.144L15.1217 6.19886C15.8491 6.73801 16.7602 6.96757 17.6562 6.83745C18.5522 6.70732 19.3603 6.22807 19.9042 5.50429C20.4482 4.7805 20.6838 3.87095 20.5595 2.97411C20.4353 2.07728 19.9614 1.26598 19.2413 0.717277C18.5211 0.16857 17.6131 -0.0730001 16.7155 0.0452865C15.8178 0.163573 15.0034 0.632113 14.45 1.34865C13.8965 2.0652 13.649 2.97156 13.7613 3.86996C13.8737 4.76835 14.3368 5.58583 15.0497 6.144ZM9.03086 8.57143C9.24617 8.16371 9.54152 7.80361 9.89922 7.51267C10.2569 7.22173 10.6696 7.00593 11.1127 6.87817C11.5557 6.75042 12.0199 6.71334 12.4776 6.76915C12.9353 6.82496 13.3771 6.97252 13.7764 7.20299C14.1758 7.43347 14.5245 7.74212 14.8018 8.11049C15.0791 8.47887 15.2793 8.89939 15.3903 9.3469C15.5013 9.79442 15.521 10.2597 15.448 10.715C15.3751 11.1703 15.211 11.6062 14.9657 11.9966C14.4938 12.7476 13.7492 13.2866 12.8882 13.5002C12.0273 13.7138 11.1171 13.5854 10.3488 13.142C9.58058 12.6987 9.01406 11.9748 8.76829 11.1225C8.52252 10.2702 8.61663 9.3558 9.03086 8.57143ZM2.57143 8.57143H7.14857C6.8439 9.44153 6.77765 10.3773 6.95671 11.2817C7.13577 12.186 7.55361 13.0259 8.16686 13.7143H7.71429C6.83046 13.7142 5.9682 13.9872 5.24552 14.496C4.52283 15.0048 3.97505 15.7245 3.67714 16.5566C3.10171 16.3254 2.56294 16.0119 2.07771 15.6257C0.788571 14.5886 0 13.056 0 11.1429C0 10.4609 0.270918 9.80682 0.753154 9.32458C1.23539 8.84235 1.88944 8.57143 2.57143 8.57143ZM16.2857 13.7143C17.1693 13.7143 18.0313 13.9874 18.7537 14.4962C19.4761 15.005 20.0236 15.7246 20.3211 16.5566C20.904 16.3183 21.444 16.008 21.9223 15.6257C23.2114 14.5886 24 13.056 24 11.1429C24 10.4609 23.7291 9.80682 23.2468 9.32458C22.7646 8.84235 22.1106 8.57143 21.4286 8.57143H16.8514C17.04 9.108 17.1429 9.68571 17.1429 10.2857C17.1444 11.5511 16.6779 12.7723 15.8331 13.7143H16.2857ZM18.6634 17.0194C18.7886 17.3211 18.8571 17.6537 18.8571 18C18.8571 19.9131 18.0703 21.4457 16.7794 22.4829C15.5091 23.5029 13.8051 24 12 24C10.1949 24 8.49086 23.5029 7.22057 22.4829C5.93143 21.4457 5.14286 19.9131 5.14286 18C5.14195 17.6621 5.20785 17.3273 5.33675 17.0149C5.46566 16.7025 5.65503 16.4187 5.89399 16.1797C6.13295 15.9407 6.41678 15.7514 6.72917 15.6225C7.04156 15.4936 7.37635 15.4277 7.71429 15.4286H16.2857C16.795 15.4285 17.2929 15.5796 17.7162 15.8628C18.1395 16.146 18.4692 16.5486 18.6634 17.0194Z" fill="#2E8B57"/>
</svg>
