<svg width="24" height="24" viewBox="0 0 24 24" fill="none" xmlns="http://www.w3.org/2000/svg">
<path d="M10.662 0.436497C11.0505 0.152856 11.519 0 12 0C12.481 0 12.9495 0.152856 13.3379 0.436497L22.9591 7.45823C24.2258 8.38132 23.5736 10.3844 22.0075 10.3883H1.99116C0.425012 10.3844 -0.225821 8.38132 1.03954 7.45823L10.6607 0.436497H10.662ZM13.2965 5.52518C13.2965 5.18133 13.1599 4.85157 12.9167 4.60843C12.6736 4.36529 12.3438 4.2287 12 4.2287C11.6561 4.2287 11.3264 4.36529 11.0832 4.60843C10.8401 4.85157 10.7035 5.18133 10.7035 5.52518C10.7035 5.86902 10.8401 6.19879 11.0832 6.44193C11.3264 6.68506 11.6561 6.82166 12 6.82166C12.3438 6.82166 12.6736 6.68506 12.9167 6.44193C13.1599 6.19879 13.2965 5.86902 13.2965 5.52518ZM11.0276 18.1658H8.43466V11.6835H11.0276V18.1658ZM15.5653 18.1658H12.9723V11.6835H15.5653V18.1658ZM20.4271 18.1658H17.51V11.6835H20.4271V18.1658ZM20.7512 19.4623H3.24874C2.47509 19.4623 1.73312 19.7697 1.18606 20.3167C0.638999 20.8638 0.331665 21.6057 0.331665 22.3794V23.0276C0.331665 23.5657 0.767282 24 1.30402 24H22.6959C22.9538 24 23.2011 23.8976 23.3835 23.7152C23.5658 23.5329 23.6683 23.2855 23.6683 23.0276V22.3794C23.6683 21.6057 23.361 20.8638 22.8139 20.3167C22.2668 19.7697 21.5249 19.4623 20.7512 19.4623ZM6.48994 18.1658H3.57286V11.6835H6.48994V18.1658Z" fill="#2E8B57"/>
</svg>
