<svg width="40" height="40" viewBox="0 0 40 40" fill="none" xmlns="http://www.w3.org/2000/svg">
<path d="M30.0667 22.5833C29.3667 23.2666 28.9667 24.25 29.0667 25.3C29.2167 27.1 30.8667 28.4166 32.6667 28.4166H35.8334V30.4C35.8334 33.85 33.0167 36.6667 29.5667 36.6667H12.7167C13.2334 36.2333 13.6834 35.7 14.0334 35.1C14.6501 34.1 15.0001 32.9167 15.0001 31.6667C15.0001 27.9833 12.0167 25 8.33341 25C6.76675 25 5.31675 25.55 4.16675 26.4667V19.1833C4.16675 15.7333 6.98342 12.9167 10.4334 12.9167H29.5667C33.0167 12.9167 35.8334 15.7333 35.8334 19.1833V21.5833H32.4667C31.5334 21.5833 30.6834 21.95 30.0667 22.5833Z" stroke="#2E8B57" stroke-width="2" stroke-linecap="round" stroke-linejoin="round"/>
<path d="M4.16675 20.6833V13.0667C4.16675 11.0834 5.38341 9.31666 7.23341 8.61666L20.4668 3.61666C22.5334 2.83333 24.7501 4.36671 24.7501 6.58338V12.9167" stroke="#2E8B57" stroke-width="2" stroke-linecap="round" stroke-linejoin="round"/>
<path d="M37.5981 23.2836V26.717C37.5981 27.6337 36.8648 28.3836 35.9314 28.4169H32.6648C30.8648 28.4169 29.2148 27.1003 29.0648 25.3003C28.9648 24.2503 29.3648 23.2669 30.0648 22.5836C30.6814 21.9503 31.5314 21.5836 32.4648 21.5836H35.9314C36.8648 21.617 37.5981 22.3669 37.5981 23.2836Z" stroke="#2E8B57" stroke-width="2" stroke-linecap="round" stroke-linejoin="round"/>
<path d="M11.6667 20H23.3334" stroke="#2E8B57" stroke-width="2" stroke-linecap="round" stroke-linejoin="round"/>
<path d="M15.0001 31.6667C15.0001 32.9167 14.6501 34.1 14.0334 35.1C13.6834 35.7 13.2334 36.2333 12.7167 36.6667C11.5501 37.7167 10.0167 38.3333 8.33341 38.3333C5.90008 38.3333 3.78342 37.0333 2.63342 35.1C2.01675 34.1 1.66675 32.9167 1.66675 31.6667C1.66675 29.5667 2.63341 27.6833 4.16675 26.4667C5.31675 25.55 6.76675 25 8.33341 25C12.0167 25 15.0001 27.9833 15.0001 31.6667Z" stroke="#2E8B57" stroke-width="2" stroke-miterlimit="10" stroke-linecap="round" stroke-linejoin="round"/>
<path d="M10.8197 31.6325H5.85303" stroke="#2E8B57" stroke-width="2" stroke-miterlimit="10" stroke-linecap="round" stroke-linejoin="round"/>
<path d="M8.3335 29.1992V34.1825" stroke="#2E8B57" stroke-width="2" stroke-miterlimit="10" stroke-linecap="round" stroke-linejoin="round"/>
</svg>
