<svg width="28" height="28" viewBox="0 0 28 28" fill="none" xmlns="http://www.w3.org/2000/svg">
<mask id="mask0_776_17580" style="mask-type:luminance" maskUnits="userSpaceOnUse" x="1" y="1" width="26" height="26">
<path d="M13.9999 25.6667C15.5323 25.6686 17.05 25.3678 18.4657 24.7813C19.8814 24.1949 21.1673 23.3345 22.2494 22.2495C23.3344 21.1674 24.1948 19.8815 24.7813 18.4658C25.3677 17.05 25.6686 15.5324 25.6666 14C25.6685 12.4676 25.3677 10.95 24.7812 9.53425C24.1948 8.11852 23.3344 6.83264 22.2494 5.7505C21.1673 4.66551 19.8814 3.80508 18.4657 3.21865C17.05 2.63221 15.5323 2.33134 13.9999 2.33333C12.4676 2.33138 10.9499 2.63226 9.53418 3.21869C8.11845 3.80512 6.83257 4.66554 5.75043 5.7505C4.66547 6.83264 3.80505 8.11852 3.21862 9.53425C2.63219 10.95 2.33131 12.4676 2.33326 14C2.33128 15.5324 2.63215 17.05 3.21858 18.4658C3.80501 19.8815 4.66544 21.1674 5.75043 22.2495C6.83257 23.3345 8.11845 24.1949 9.53418 24.7813C10.9499 25.3677 12.4676 25.6686 13.9999 25.6667Z" fill="white" stroke="white" stroke-width="2" stroke-linejoin="round"/>
<path d="M9.33325 14L12.8333 17.5L19.8333 10.5" stroke="black" stroke-width="2" stroke-linecap="round" stroke-linejoin="round"/>
</mask>
<g mask="url(#mask0_776_17580)">
<path d="M0 0H28V28H0V0Z" fill="#27AE60"/>
</g>
</svg>
