<svg width="19" height="24" viewBox="0 0 19 24" fill="none" xmlns="http://www.w3.org/2000/svg">
<path d="M1.33333 21.3333C1.33333 22.8 2.53333 24 4 24H14.6667C16.1333 24 17.3333 22.8 17.3333 21.3333V5.33333H1.33333V21.3333ZM5.56 12.7867C5.3107 12.5374 5.17064 12.1992 5.17064 11.8467C5.17064 11.4941 5.3107 11.156 5.56 10.9067C5.8093 10.6574 6.14743 10.5173 6.5 10.5173C6.85257 10.5173 7.1907 10.6574 7.44 10.9067L9.33333 12.7867L11.2133 10.9067C11.4626 10.6574 11.8008 10.5173 12.1533 10.5173C12.5059 10.5173 12.844 10.6574 13.0933 10.9067C13.3426 11.156 13.4827 11.4941 13.4827 11.8467C13.4827 12.1992 13.3426 12.5374 13.0933 12.7867L11.2133 14.6667L13.0933 16.5467C13.2168 16.6701 13.3147 16.8167 13.3815 16.9779C13.4483 17.1392 13.4827 17.3121 13.4827 17.4867C13.4827 17.6612 13.4483 17.8341 13.3815 17.9954C13.3147 18.1567 13.2168 18.3032 13.0933 18.4267C12.9699 18.5501 12.8233 18.648 12.6621 18.7148C12.5008 18.7816 12.3279 18.816 12.1533 18.816C11.9788 18.816 11.8059 18.7816 11.6446 18.7148C11.4833 18.648 11.3368 18.5501 11.2133 18.4267L9.33333 16.5467L7.45334 18.4267C7.32989 18.5501 7.18334 18.648 7.02206 18.7148C6.86077 18.7816 6.68791 18.816 6.51334 18.816C6.33876 18.816 6.1659 18.7816 6.00461 18.7148C5.84333 18.648 5.69678 18.5501 5.57333 18.4267C5.44989 18.3032 5.35197 18.1567 5.28516 17.9954C5.21836 17.8341 5.18397 17.6612 5.18397 17.4867C5.18397 17.3121 5.21836 17.1392 5.28516 16.9779C5.35197 16.8167 5.44989 16.6701 5.57333 16.5467L7.45334 14.6667L5.56 12.7867ZM17.3333 1.33333H14L13.0533 0.386667C12.8133 0.146667 12.4667 0 12.12 0H6.54667C6.2 0 5.85333 0.146667 5.61333 0.386667L4.66667 1.33333H1.33333C0.6 1.33333 0 1.93333 0 2.66667C0 3.4 0.6 4 1.33333 4H17.3333C18.0667 4 18.6667 3.4 18.6667 2.66667C18.6667 1.93333 18.0667 1.33333 17.3333 1.33333Z" fill="#EB5757"/>
</svg>
