<svg width="45" height="44" viewBox="0 0 45 44" fill="none" xmlns="http://www.w3.org/2000/svg">
<rect x="1.25" y="0.75" width="42.5" height="42.5" rx="9.25" stroke="#E0E0E0" stroke-width="1.5"/>
<path d="M28.0399 18.3096C29.3986 18.3096 30.5 17.2083 30.5 15.8496C30.5 14.491 29.3986 13.3896 28.0399 13.3896C26.6813 13.3896 25.58 14.491 25.58 15.8496C25.58 17.2083 26.6813 18.3096 28.0399 18.3096Z" stroke="#333333" stroke-width="1.5" stroke-miterlimit="10" stroke-linecap="round" stroke-linejoin="round"/>
<path d="M16.96 18.3096C18.3186 18.3096 19.42 17.2083 19.42 15.8496C19.42 14.491 18.3186 13.3896 16.96 13.3896C15.6014 13.3896 14.5 14.491 14.5 15.8496C14.5 17.2083 15.6014 18.3096 16.96 18.3096Z" stroke="#333333" stroke-width="1.5" stroke-miterlimit="10" stroke-linecap="round" stroke-linejoin="round"/>
<path d="M28.0399 30.6095C29.3986 30.6095 30.5 29.5081 30.5 28.1495C30.5 26.7908 29.3986 25.6895 28.0399 25.6895C26.6813 25.6895 25.58 26.7908 25.58 28.1495C25.58 29.5081 26.6813 30.6095 28.0399 30.6095Z" stroke="#333333" stroke-width="1.5" stroke-miterlimit="10" stroke-linecap="round" stroke-linejoin="round"/>
<path d="M16.96 30.6095C18.3186 30.6095 19.42 29.5081 19.42 28.1495C19.42 26.7908 18.3186 25.6895 16.96 25.6895C15.6014 25.6895 14.5 26.7908 14.5 28.1495C14.5 29.5081 15.6014 30.6095 16.96 30.6095Z" stroke="#333333" stroke-width="1.5" stroke-miterlimit="10" stroke-linecap="round" stroke-linejoin="round"/>
</svg>
